<svg xmlns="http://www.w3.org/2000/svg" viewBox="0 0 200 200">
  <defs>
    <linearGradient id="cacauGrad" x1="0%" y1="0%" x2="100%" y2="100%">
      <stop offset="0%" style="stop-color:#8B4513;stop-opacity:1" />
      <stop offset="100%" style="stop-color:#654321;stop-opacity:1" />
    </linearGradient>
  </defs>
  <rect width="200" height="200" fill="#f8f9fa"/>
  <g transform="translate(100,100)">
    <!-- Fruto do cacau -->
    <ellipse cx="0" cy="0" rx="18" ry="35" fill="url(#cacauGrad)" stroke="#4A4A4A" stroke-width="2"/>
    <!-- Linhas características do cacau -->
    <path d="M0,-35 Q-10,-20 0,0 Q10,-20 0,-35" stroke="#4A4A4A" stroke-width="1" fill="none"/>
    <path d="M0,0 Q-10,15 0,35 Q10,15 0,0" stroke="#4A4A4A" stroke-width="1" fill="none"/>
    <line x1="-15" y1="-15" x2="15" y2="-15" stroke="#4A4A4A" stroke-width="1"/>
    <line x1="-15" y1="0" x2="15" y2="0" stroke="#4A4A4A" stroke-width="1"/>
    <line x1="-15" y1="15" x2="15" y2="15" stroke="#4A4A4A" stroke-width="1"/>
    <!-- Cabo -->
    <rect x="-2" y="-40" width="4" height="8" fill="#228B22"/>
    <!-- Folhas -->
    <ellipse cx="-25" cy="-25" rx="12" ry="8" fill="#228B22" transform="rotate(-30 -25 -25)"/>
    <ellipse cx="25" cy="-25" rx="12" ry="8" fill="#228B22" transform="rotate(30 25 -25)"/>
    <!-- Brilho -->
    <ellipse cx="-6" cy="-15" rx="4" ry="12" fill="#A0522D" opacity="0.6"/>
  </g>
  <text x="100" y="180" text-anchor="middle" font-family="Arial, sans-serif" font-size="16" font-weight="bold" fill="#2c5530">CACAU</text>
</svg>