<svg xmlns="http://www.w3.org/2000/svg" width="1920" height="1080" viewBox="0 0 1920 1080">
  <!-- Fundo verde escuro com gradiente -->
  <defs>
    <linearGradient id="bg-gradient" x1="0%" y1="0%" x2="100%" y2="100%">
      <stop offset="0%" style="stop-color:#0D4F27;stop-opacity:1" />
      <stop offset="100%" style="stop-color:#3E8E41;stop-opacity:1" />
    </linearGradient>
    
    <!-- Padrão de folhas para o fundo -->
    <pattern id="leaf-pattern" x="0" y="0" width="200" height="200" patternUnits="userSpaceOnUse">
      <path d="M0,100 C50,50 150,50 200,100 C150,150 50,150 0,100 Z" fill="rgba(255,255,255,0.03)" transform="rotate(45 100 100)"/>
    </pattern>
    
    <!-- Filtro para criar efeito de ondulação -->
    <filter id="wave-effect" x="-20%" y="-20%" width="140%" height="140%">
      <feTurbulence type="fractalNoise" baseFrequency="0.01" numOctaves="2" result="turbulence"/>
      <feDisplacementMap in="SourceGraphic" in2="turbulence" scale="20" xChannelSelector="R" yChannelSelector="G"/>
    </filter>
  </defs>
  
  <!-- Retângulo de fundo com gradiente -->
  <rect width="1920" height="1080" fill="url(#bg-gradient)"/>
  
  <!-- Camada com padrão de folhas -->
  <rect width="1920" height="1080" fill="url(#leaf-pattern)" opacity="0.7"/>
  
  <!-- Formas orgânicas abstratas -->
  <g opacity="0.1" filter="url(#wave-effect)">
    <!-- Forma ondulada 1 -->
    <path d="M-100,300 C200,250 400,350 600,300 C800,250 1000,350 1200,300 C1400,250 1600,350 1800,300 C2000,250 2200,350 2400,300 L2400,1080 L-100,1080 Z" fill="#FFFFFF"/>
    
    <!-- Forma ondulada 2 -->
    <path d="M-100,500 C200,450 400,550 600,500 C800,450 1000,550 1200,500 C1400,450 1600,550 1800,500 C2000,450 2200,550 2400,500 L2400,1080 L-100,1080 Z" fill="#FFFFFF" opacity="0.5"/>
    
    <!-- Forma ondulada 3 -->
    <path d="M-100,700 C200,650 400,750 600,700 C800,650 1000,750 1200,700 C1400,650 1600,750 1800,700 C2000,650 2200,750 2400,700 L2400,1080 L-100,1080 Z" fill="#FFFFFF" opacity="0.3"/>
  </g>
  
  <!-- Elementos decorativos -->
  <g opacity="0.05">
    <!-- Círculos decorativos -->
    <circle cx="200" cy="200" r="100" fill="#FFFFFF"/>
    <circle cx="1700" cy="300" r="150" fill="#FFFFFF"/>
    <circle cx="500" cy="800" r="120" fill="#FFFFFF"/>
    <circle cx="1300" cy="700" r="80" fill="#FFFFFF"/>
    
    <!-- Linhas decorativas -->
    <line x1="0" y1="400" x2="1920" y2="400" stroke="#FFFFFF" stroke-width="1" opacity="0.2"/>
    <line x1="0" y1="800" x2="1920" y2="800" stroke="#FFFFFF" stroke-width="1" opacity="0.2"/>
  </g>
  
  <!-- Efeito de partículas (pontos) -->
  <g>
    <circle cx="300" cy="200" r="2" fill="#FFFFFF" opacity="0.3"/>
    <circle cx="500" cy="300" r="2" fill="#FFFFFF" opacity="0.3"/>
    <circle cx="700" cy="150" r="2" fill="#FFFFFF" opacity="0.3"/>
    <circle cx="900" cy="250" r="2" fill="#FFFFFF" opacity="0.3"/>
    <circle cx="1100" cy="350" r="2" fill="#FFFFFF" opacity="0.3"/>
    <circle cx="1300" cy="200" r="2" fill="#FFFFFF" opacity="0.3"/>
    <circle cx="1500" cy="300" r="2" fill="#FFFFFF" opacity="0.3"/>
    <circle cx="1700" cy="150" r="2" fill="#FFFFFF" opacity="0.3"/>
    <circle cx="400" cy="400" r="2" fill="#FFFFFF" opacity="0.3"/>
    <circle cx="600" cy="500" r="2" fill="#FFFFFF" opacity="0.3"/>
    <circle cx="800" cy="450" r="2" fill="#FFFFFF" opacity="0.3"/>
    <circle cx="1000" cy="550" r="2" fill="#FFFFFF" opacity="0.3"/>
    <circle cx="1200" cy="450" r="2" fill="#FFFFFF" opacity="0.3"/>
    <circle cx="1400" cy="550" r="2" fill="#FFFFFF" opacity="0.3"/>
    <circle cx="1600" cy="450" r="2" fill="#FFFFFF" opacity="0.3"/>
    <circle cx="350" cy="600" r="2" fill="#FFFFFF" opacity="0.3"/>
    <circle cx="550" cy="650" r="2" fill="#FFFFFF" opacity="0.3"/>
    <circle cx="750" cy="600" r="2" fill="#FFFFFF" opacity="0.3"/>
    <circle cx="950" cy="650" r="2" fill="#FFFFFF" opacity="0.3"/>
    <circle cx="1150" cy="600" r="2" fill="#FFFFFF" opacity="0.3"/>
    <circle cx="1350" cy="650" r="2" fill="#FFFFFF" opacity="0.3"/>
    <circle cx="1550" cy="600" r="2" fill="#FFFFFF" opacity="0.3"/>
    <circle cx="1750" cy="650" r="2" fill="#FFFFFF" opacity="0.3"/>
  </g>
</svg>