<svg xmlns="http://www.w3.org/2000/svg" viewBox="0 0 300 400">
  <defs>
    <linearGradient id="milhoGrad" x1="0%" y1="0%" x2="100" y2="100%">
      <stop offset="0%" style="stop-color:#FFE135;stop-opacity:1" />
      <stop offset="50%" style="stop-color:#FFD700;stop-opacity:1" />
      <stop offset="100%" style="stop-color:#DAA520;stop-opacity:1" />
    </linearGradient>
    <linearGradient id="folhaGrad" x1="0%" y1="0%" x2="100%" y2="100%">
      <stop offset="0%" style="stop-color:#90EE90;stop-opacity:1" />
      <stop offset="50%" style="stop-color:#32CD32;stop-opacity:1" />
      <stop offset="100%" style="stop-color:#228B22;stop-opacity:1" />
    </linearGradient>
    <radialGradient id="graoGrad" cx="50%" cy="30%" r="70%">
      <stop offset="0%" style="stop-color:#FFFF99;stop-opacity:1" />
      <stop offset="100%" style="stop-color:#FFD700;stop-opacity:1" />
    </radialGradient>
  </defs>
  
  <!-- Fundo -->
  <rect width="300" height="400" fill="#f8f9fa"/>
  
  <g transform="translate(150,200)">
    <!-- Folhas externas -->
    <path d="M-60,-120 Q-80,-80 -70,-40 Q-65,-20 -50,-30 Q-40,-60 -45,-100 Q-50,-120 -60,-120" fill="url(#folhaGrad)" stroke="#228B22" stroke-width="1"/>
    <path d="M60,-120 Q80,-80 70,-40 Q65,-20 50,-30 Q40,-60 45,-100 Q50,-120 60,-120" fill="url(#folhaGrad)" stroke="#228B22" stroke-width="1"/>
    
    <!-- Espiga principal -->
    <ellipse cx="0" cy="-20" rx="35" ry="100" fill="url(#milhoGrad)" stroke="#B8860B" stroke-width="2"/>
    
    <!-- Fileiras de grãos -->
    <!-- Fileira 1 -->
    <circle cx="-20" cy="-80" r="4" fill="url(#graoGrad)" stroke="#DAA520" stroke-width="0.5"/>
    <circle cx="-10" cy="-85" r="4" fill="url(#graoGrad)" stroke="#DAA520" stroke-width="0.5"/>
    <circle cx="0" cy="-88" r="4" fill="url(#graoGrad)" stroke="#DAA520" stroke-width="0.5"/>
    <circle cx="10" cy="-85" r="4" fill="url(#graoGrad)" stroke="#DAA520" stroke-width="0.5"/>
    <circle cx="20" cy="-80" r="4" fill="url(#graoGrad)" stroke="#DAA520" stroke-width="0.5"/>
    
    <!-- Fileira 2 -->
    <circle cx="-18" cy="-65" r="4" fill="url(#graoGrad)" stroke="#DAA520" stroke-width="0.5"/>
    <circle cx="-8" cy="-70" r="4" fill="url(#graoGrad)" stroke="#DAA520" stroke-width="0.5"/>
    <circle cx="2" cy="-73" r="4" fill="url(#graoGrad)" stroke="#DAA520" stroke-width="0.5"/>
    <circle cx="12" cy="-70" r="4" fill="url(#graoGrad)" stroke="#DAA520" stroke-width="0.5"/>
    <circle cx="18" cy="-65" r="4" fill="url(#graoGrad)" stroke="#DAA520" stroke-width="0.5"/>
    
    <!-- Fileira 3 -->
    <circle cx="-22" cy="-50" r="4" fill="url(#graoGrad)" stroke="#DAA520" stroke-width="0.5"/>
    <circle cx="-12" cy="-55" r="4" fill="url(#graoGrad)" stroke="#DAA520" stroke-width="0.5"/>
    <circle cx="-2" cy="-58" r="4" fill="url(#graoGrad)" stroke="#DAA520" stroke-width="0.5"/>
    <circle cx="8" cy="-55" r="4" fill="url(#graoGrad)" stroke="#DAA520" stroke-width="0.5"/>
    <circle cx="22" cy="-50" r="4" fill="url(#graoGrad)" stroke="#DAA520" stroke-width="0.5"/>
    
    <!-- Fileira 4 -->
    <circle cx="-20" cy="-35" r="4" fill="url(#graoGrad)" stroke="#DAA520" stroke-width="0.5"/>
    <circle cx="-10" cy="-40" r="4" fill="url(#graoGrad)" stroke="#DAA520" stroke-width="0.5"/>
    <circle cx="0" cy="-43" r="4" fill="url(#graoGrad)" stroke="#DAA520" stroke-width="0.5"/>
    <circle cx="10" cy="-40" r="4" fill="url(#graoGrad)" stroke="#DAA520" stroke-width="0.5"/>
    <circle cx="20" cy="-35" r="4" fill="url(#graoGrad)" stroke="#DAA520" stroke-width="0.5"/>
    
    <!-- Fileira 5 -->
    <circle cx="-18" cy="-20" r="4" fill="url(#graoGrad)" stroke="#DAA520" stroke-width="0.5"/>
    <circle cx="-8" cy="-25" r="4" fill="url(#graoGrad)" stroke="#DAA520" stroke-width="0.5"/>
    <circle cx="2" cy="-28" r="4" fill="url(#graoGrad)" stroke="#DAA520" stroke-width="0.5"/>
    <circle cx="12" cy="-25" r="4" fill="url(#graoGrad)" stroke="#DAA520" stroke-width="0.5"/>
    <circle cx="18" cy="-20" r="4" fill="url(#graoGrad)" stroke="#DAA520" stroke-width="0.5"/>
    
    <!-- Fileira 6 -->
    <circle cx="-22" cy="-5" r="4" fill="url(#graoGrad)" stroke="#DAA520" stroke-width="0.5"/>
    <circle cx="-12" cy="-10" r="4" fill="url(#graoGrad)" stroke="#DAA520" stroke-width="0.5"/>
    <circle cx="-2" cy="-13" r="4" fill="url(#graoGrad)" stroke="#DAA520" stroke-width="0.5"/>
    <circle cx="8" cy="-10" r="4" fill="url(#graoGrad)" stroke="#DAA520" stroke-width="0.5"/>
    <circle cx="22" cy="-5" r="4" fill="url(#graoGrad)" stroke="#DAA520" stroke-width="0.5"/>
    
    <!-- Fileira 7 -->
    <circle cx="-20" cy="10" r="4" fill="url(#graoGrad)" stroke="#DAA520" stroke-width="0.5"/>
    <circle cx="-10" cy="5" r="4" fill="url(#graoGrad)" stroke="#DAA520" stroke-width="0.5"/>
    <circle cx="0" cy="2" r="4" fill="url(#graoGrad)" stroke="#DAA520" stroke-width="0.5"/>
    <circle cx="10" cy="5" r="4" fill="url(#graoGrad)" stroke="#DAA520" stroke-width="0.5"/>
    <circle cx="20" cy="10" r="4" fill="url(#graoGrad)" stroke="#DAA520" stroke-width="0.5"/>
    
    <!-- Fileira 8 -->
    <circle cx="-18" cy="25" r="4" fill="url(#graoGrad)" stroke="#DAA520" stroke-width="0.5"/>
    <circle cx="-8" cy="20" r="4" fill="url(#graoGrad)" stroke="#DAA520" stroke-width="0.5"/>
    <circle cx="2" cy="17" r="4" fill="url(#graoGrad)" stroke="#DAA520" stroke-width="0.5"/>
    <circle cx="12" cy="20" r="4" fill="url(#graoGrad)" stroke="#DAA520" stroke-width="0.5"/>
    <circle cx="18" cy="25" r="4" fill="url(#graoGrad)" stroke="#DAA520" stroke-width="0.5"/>
    
    <!-- Fileira 9 -->
    <circle cx="-15" cy="40" r="4" fill="url(#graoGrad)" stroke="#DAA520" stroke-width="0.5"/>
    <circle cx="-5" cy="35" r="4" fill="url(#graoGrad)" stroke="#DAA520" stroke-width="0.5"/>
    <circle cx="5" cy="32" r="4" fill="url(#graoGrad)" stroke="#DAA520" stroke-width="0.5"/>
    <circle cx="15" cy="40" r="4" fill="url(#graoGrad)" stroke="#DAA520" stroke-width="0.5"/>
    
    <!-- Fileira 10 -->
    <circle cx="-12" cy="55" r="3" fill="url(#graoGrad)" stroke="#DAA520" stroke-width="0.5"/>
    <circle cx="0" cy="50" r="3" fill="url(#graoGrad)" stroke="#DAA520" stroke-width="0.5"/>
    <circle cx="12" cy="55" r="3" fill="url(#graoGrad)" stroke="#DAA520" stroke-width="0.5"/>
    
    <!-- Folhas internas -->
    <path d="M-30,-100 Q-45,-60 -35,-20 Q-30,0 -25,-10 Q-20,-40 -25,-80 Q-28,-100 -30,-100" fill="url(#folhaGrad)" stroke="#228B22" stroke-width="1" opacity="0.8"/>
    <path d="M30,-100 Q45,-60 35,-20 Q30,0 25,-10 Q20,-40 25,-80 Q28,-100 30,-100" fill="url(#folhaGrad)" stroke="#228B22" stroke-width="1" opacity="0.8"/>
    
    <!-- Cabelos do milho -->
    <path d="M-5,-120 Q-10,-140 -8,-150" stroke="#8B4513" stroke-width="1" fill="none"/>
    <path d="M0,-122 Q2,-142 0,-152" stroke="#8B4513" stroke-width="1" fill="none"/>
    <path d="M5,-120 Q10,-140 8,-150" stroke="#8B4513" stroke-width="1" fill="none"/>
    <path d="M-3,-118 Q-8,-138 -5,-148" stroke="#8B4513" stroke-width="1" fill="none"/>
    <path d="M3,-118 Q8,-138 5,-148" stroke="#8B4513" stroke-width="1" fill="none"/>
  </g>
  
  <!-- Título -->
  <text x="150" y="370" text-anchor="middle" font-family="Arial, sans-serif" font-size="24" font-weight="bold" fill="#2c5530">MILHO</text>
</svg>