<svg xmlns="http://www.w3.org/2000/svg" viewBox="0 0 200 200">
  <defs>
    <radialGradient id="pimentaGrad" cx="50%" cy="30%" r="70%">
      <stop offset="0%" style="stop-color:#2F4F2F;stop-opacity:1" />
      <stop offset="100%" style="stop-color:#000000;stop-opacity:1" />
    </radialGradient>
  </defs>
  <rect width="200" height="200" fill="#f8f9fa"/>
  <g transform="translate(100,100)">
    <!-- Cacho de pimenta-do-reino -->
    <line x1="0" y1="-40" x2="0" y2="30" stroke="#228B22" stroke-width="3"/>
    <!-- Grãos de pimenta -->
    <circle cx="-3" cy="-25" r="3" fill="url(#pimentaGrad)"/>
    <circle cx="3" cy="-25" r="3" fill="url(#pimentaGrad)"/>
    <circle cx="-5" cy="-18" r="3" fill="url(#pimentaGrad)"/>
    <circle cx="0" cy="-18" r="3" fill="url(#pimentaGrad)"/>
    <circle cx="5" cy="-18" r="3" fill="url(#pimentaGrad)"/>
    <circle cx="-3" cy="-11" r="3" fill="url(#pimentaGrad)"/>
    <circle cx="3" cy="-11" r="3" fill="url(#pimentaGrad)"/>
    <circle cx="-5" cy="-4" r="3" fill="url(#pimentaGrad)"/>
    <circle cx="0" cy="-4" r="3" fill="url(#pimentaGrad)"/>
    <circle cx="5" cy="-4" r="3" fill="url(#pimentaGrad)"/>
    <circle cx="-3" cy="3" r="3" fill="url(#pimentaGrad)"/>
    <circle cx="3" cy="3" r="3" fill="url(#pimentaGrad)"/>
    <circle cx="-5" cy="10" r="3" fill="url(#pimentaGrad)"/>
    <circle cx="0" cy="10" r="3" fill="url(#pimentaGrad)"/>
    <circle cx="5" cy="10" r="3" fill="url(#pimentaGrad)"/>
    <circle cx="-3" cy="17" r="3" fill="url(#pimentaGrad)"/>
    <circle cx="3" cy="17" r="3" fill="url(#pimentaGrad)"/>
    <!-- Folhas -->
    <ellipse cx="-20" cy="-30" rx="10" ry="6" fill="#228B22" transform="rotate(-45 -20 -30)"/>
    <ellipse cx="20" cy="-30" rx="10" ry="6" fill="#228B22" transform="rotate(45 20 -30)"/>
    <ellipse cx="-18" cy="0" rx="8" ry="5" fill="#32CD32" transform="rotate(-30 -18 0)"/>
    <ellipse cx="18" cy="0" rx="8" ry="5" fill="#32CD32" transform="rotate(30 18 0)"/>
  </g>
  <text x="100" y="180" text-anchor="middle" font-family="Arial, sans-serif" font-size="12" font-weight="bold" fill="#2c5530">PIMENTA-DO-REINO</text>
</svg>