<svg xmlns="http://www.w3.org/2000/svg" width="800" height="600" viewBox="0 0 800 600">
  <!-- Fundo com gradiente suave -->
  <defs>
    <linearGradient id="bg-gradient" x1="0%" y1="0%" x2="100%" y2="100%">
      <stop offset="0%" style="stop-color:#f8f9fa;stop-opacity:1" />
      <stop offset="100%" style="stop-color:#e9ecef;stop-opacity:1" />
    </linearGradient>
    
    <!-- Padrão de linhas para campo agrícola -->
    <pattern id="field-pattern" x="0" y="0" width="40" height="40" patternUnits="userSpaceOnUse">
      <path d="M0,20 L40,20" stroke="#3E8E41" stroke-width="1" opacity="0.2"/>
    </pattern>
    
    <!-- Gradiente para plantas -->
    <linearGradient id="plant-gradient" x1="0%" y1="100%" x2="0%" y2="0%">
      <stop offset="0%" style="stop-color:#0D4F27;stop-opacity:1" />
      <stop offset="100%" style="stop-color:#3E8E41;stop-opacity:1" />
    </linearGradient>
    
    <!-- Gradiente para o céu -->
    <linearGradient id="sky-gradient" x1="0%" y1="0%" x2="0%" y2="100%">
      <stop offset="0%" style="stop-color:#a1c4fd;stop-opacity:0.7" />
      <stop offset="100%" style="stop-color:#c2e9fb;stop-opacity:0.7" />
    </linearGradient>
  </defs>
  
  <!-- Fundo com gradiente -->
  <rect width="800" height="600" fill="url(#bg-gradient)" rx="10" ry="10"/>
  
  <!-- Céu -->
  <rect x="50" y="50" width="700" height="200" fill="url(#sky-gradient)" rx="5" ry="5"/>
  
  <!-- Sol -->
  <circle cx="650" cy="100" r="40" fill="#D4A017" opacity="0.9"/>
  <circle cx="650" cy="100" r="50" fill="#D4A017" opacity="0.3"/>
  <circle cx="650" cy="100" r="60" fill="#D4A017" opacity="0.1"/>
  
  <!-- Nuvens -->
  <g opacity="0.8">
    <ellipse cx="150" cy="90" rx="40" ry="20" fill="#FFFFFF"/>
    <ellipse cx="180" cy="100" rx="40" ry="20" fill="#FFFFFF"/>
    <ellipse cx="120" cy="100" rx="30" ry="15" fill="#FFFFFF"/>
    
    <ellipse cx="350" cy="70" rx="50" ry="25" fill="#FFFFFF"/>
    <ellipse cx="390" cy="80" rx="40" ry="20" fill="#FFFFFF"/>
    <ellipse cx="310" cy="80" rx="35" ry="18" fill="#FFFFFF"/>
  </g>
  
  <!-- Campo agrícola -->
  <rect x="50" y="250" width="700" height="300" fill="#D2B48C" rx="5" ry="5"/>
  <rect x="50" y="250" width="700" height="300" fill="url(#field-pattern)" rx="5" ry="5"/>
  
  <!-- Plantas (representando culturas agrícolas) -->
  <g>
    <!-- Fileira 1 -->
    <g transform="translate(100, 350)">
      <line x1="0" y1="0" x2="0" y2="-50" stroke="url(#plant-gradient)" stroke-width="3"/>
      <ellipse cx="0" cy="-60" rx="15" ry="10" fill="#3E8E41"/>
    </g>
    
    <g transform="translate(150, 350)">
      <line x1="0" y1="0" x2="0" y2="-40" stroke="url(#plant-gradient)" stroke-width="3"/>
      <ellipse cx="0" cy="-50" rx="12" ry="8" fill="#3E8E41"/>
    </g>
    
    <g transform="translate(200, 350)">
      <line x1="0" y1="0" x2="0" y2="-60" stroke="url(#plant-gradient)" stroke-width="3"/>
      <ellipse cx="0" cy="-70" rx="18" ry="12" fill="#3E8E41"/>
    </g>
    
    <!-- Fileira 2 -->
    <g transform="translate(300, 380)">
      <line x1="0" y1="0" x2="0" y2="-45" stroke="url(#plant-gradient)" stroke-width="3"/>
      <ellipse cx="0" cy="-55" rx="14" ry="9" fill="#3E8E41"/>
    </g>
    
    <g transform="translate(350, 380)">
      <line x1="0" y1="0" x2="0" y2="-55" stroke="url(#plant-gradient)" stroke-width="3"/>
      <ellipse cx="0" cy="-65" rx="16" ry="11" fill="#3E8E41"/>
    </g>
    
    <g transform="translate(400, 380)">
      <line x1="0" y1="0" x2="0" y2="-50" stroke="url(#plant-gradient)" stroke-width="3"/>
      <ellipse cx="0" cy="-60" rx="15" ry="10" fill="#3E8E41"/>
    </g>
    
    <!-- Fileira 3 -->
    <g transform="translate(500, 410)">
      <line x1="0" y1="0" x2="0" y2="-40" stroke="url(#plant-gradient)" stroke-width="3"/>
      <ellipse cx="0" cy="-50" rx="13" ry="8" fill="#3E8E41"/>
    </g>
    
    <g transform="translate(550, 410)">
      <line x1="0" y1="0" x2="0" y2="-60" stroke="url(#plant-gradient)" stroke-width="3"/>
      <ellipse cx="0" cy="-70" rx="17" ry="12" fill="#3E8E41"/>
    </g>
    
    <g transform="translate(600, 410)">
      <line x1="0" y1="0" x2="0" y2="-50" stroke="url(#plant-gradient)" stroke-width="3"/>
      <ellipse cx="0" cy="-60" rx="15" ry="10" fill="#3E8E41"/>
    </g>
  </g>
  
  <!-- Trator estilizado -->
  <g transform="translate(650, 500) scale(0.8)">
    <!-- Corpo do trator -->
    <rect x="-40" y="-30" width="80" height="40" fill="#D4A017" rx="5" ry="5"/>
    
    <!-- Cabine -->
    <rect x="-20" y="-60" width="40" height="30" fill="#D4A017" rx="5" ry="5"/>
    
    <!-- Rodas -->
    <circle cx="-25" cy="15" r="15" fill="#333333"/>
    <circle cx="25" cy="15" r="15" fill="#333333"/>
    <circle cx="-25" cy="15" r="7" fill="#666666"/>
    <circle cx="25" cy="15" r="7" fill="#666666"/>
    
    <!-- Detalhes -->
    <rect x="-40" y="-20" width="10" height="10" fill="#FF0000"/>
  </g>
  
  <!-- Laboratório/Instalação (representando a parte de consultoria/tecnologia) -->
  <g transform="translate(150, 480)">
    <!-- Edifício principal -->
    <rect x="-50" y="-80" width="100" height="80" fill="#FFFFFF" stroke="#CCCCCC" stroke-width="2"/>
    
    <!-- Telhado -->
    <polygon points="-60,-80 60,-80 40,-100 -40,-100" fill="#CCCCCC"/>
    
    <!-- Porta -->
    <rect x="-10" y="-30" width="20" height="30" fill="#0D4F27"/>
    
    <!-- Janelas -->
    <rect x="-40" y="-60" width="20" height="20" fill="#a1c4fd" stroke="#FFFFFF" stroke-width="2"/>
    <rect x="20" y="-60" width="20" height="20" fill="#a1c4fd" stroke="#FFFFFF" stroke-width="2"/>
    
    <!-- Chaminé com símbolo de laboratório -->
    <rect x="30" y="-110" width="10" height="30" fill="#CCCCCC"/>
    <circle cx="35" cy="-115" r="8" fill="#FFFFFF" stroke="#0D4F27" stroke-width="2"/>
    <circle cx="35" cy="-115" r="4" fill="#0D4F27"/>
  </g>
  
  <!-- Elementos decorativos -->
  <g opacity="0.7">
    <!-- Pássaros -->
    <path d="M250,120 C255,115 260,120 265,115 C270,120 275,115 280,120" fill="none" stroke="#333333" stroke-width="1"/>
    <path d="M300,100 C305,95 310,100 315,95 C320,100 325,95 330,100" fill="none" stroke="#333333" stroke-width="1"/>
  </g>
</svg>