<svg xmlns="http://www.w3.org/2000/svg" viewBox="0 0 300 400">
  <defs>
    <linearGradient id="folhaGrad" x1="0%" y1="0%" x2="100%" y2="100%">
      <stop offset="0%" style="stop-color:#90EE90;stop-opacity:1" />
      <stop offset="50%" style="stop-color:#32CD32;stop-opacity:1" />
      <stop offset="100%" style="stop-color:#228B22;stop-opacity:1" />
    </linearGradient>
    <linearGradient id="caule" x1="0%" y1="0%" x2="100%" y2="100%">
      <stop offset="0%" style="stop-color:#8B4513;stop-opacity:1" />
      <stop offset="100%" style="stop-color:#654321;stop-opacity:1" />
    </linearGradient>
    <radialGradient id="graoCafe" cx="50%" cy="30%" r="70%">
      <stop offset="0%" style="stop-color:#8B4513;stop-opacity:1" />
      <stop offset="50%" style="stop-color:#654321;stop-opacity:1" />
      <stop offset="100%" style="stop-color:#4A2C17;stop-opacity:1" />
    </radialGradient>
    <radialGradient id="cerejaGrad" cx="50%" cy="30%" r="70%">
      <stop offset="0%" style="stop-color:#FF6B6B;stop-opacity:1" />
      <stop offset="50%" style="stop-color:#DC143C;stop-opacity:1" />
      <stop offset="100%" style="stop-color:#8B0000;stop-opacity:1" />
    </radialGradient>
    <radialGradient id="cerejaVerde" cx="50%" cy="30%" r="70%">
      <stop offset="0%" style="stop-color:#90EE90;stop-opacity:1" />
      <stop offset="50%" style="stop-color:#32CD32;stop-opacity:1" />
      <stop offset="100%" style="stop-color:#228B22;stop-opacity:1" />
    </radialGradient>
  </defs>
  
  <!-- Fundo -->
  <rect width="300" height="400" fill="#f8f9fa"/>
  
  <g transform="translate(150,200)">
    <!-- Caule principal -->
    <rect x="-4" y="-120" width="8" height="240" fill="url(#caule)" stroke="#654321" stroke-width="1" rx="4"/>
    
    <!-- Ramos laterais -->
    <rect x="-40" y="-80" width="5" height="80" fill="url(#caule)" stroke="#654321" stroke-width="1" rx="2.5" transform="rotate(-30 -40 -80)"/>
    <rect x="40" y="-80" width="5" height="80" fill="url(#caule)" stroke="#654321" stroke-width="1" rx="2.5" transform="rotate(30 40 -80)"/>
    <rect x="-45" y="-20" width="5" height="70" fill="url(#caule)" stroke="#654321" stroke-width="1" rx="2.5" transform="rotate(-25 -45 -20)"/>
    <rect x="45" y="-20" width="5" height="70" fill="url(#caule)" stroke="#654321" stroke-width="1" rx="2.5" transform="rotate(25 45 -20)"/>
    <rect x="-35" y="40" width="5" height="60" fill="url(#caule)" stroke="#654321" stroke-width="1" rx="2.5" transform="rotate(-20 -35 40)"/>
    <rect x="35" y="40" width="5" height="60" fill="url(#caule)" stroke="#654321" stroke-width="1" rx="2.5" transform="rotate(20 35 40)"/>
    
    <!-- Folhas do cafeeiro (opostas e brilhantes) -->
    <!-- Par de folhas superior -->
    <ellipse cx="-30" cy="-90" rx="20" ry="8" fill="url(#folhaGrad)" stroke="#228B22" stroke-width="1" transform="rotate(-15 -30 -90)"/>
    <path d="M-30,-90 L-10,-90" stroke="#228B22" stroke-width="1"/>
    <ellipse cx="30" cy="-90" rx="20" ry="8" fill="url(#folhaGrad)" stroke="#228B22" stroke-width="1" transform="rotate(15 30 -90)"/>
    <path d="M30,-90 L10,-90" stroke="#228B22" stroke-width="1"/>
    
    <!-- Par de folhas médio superior -->
    <ellipse cx="-35" cy="-60" rx="22" ry="9" fill="url(#folhaGrad)" stroke="#228B22" stroke-width="1" transform="rotate(-10 -35 -60)"/>
    <path d="M-35,-60 L-13,-60" stroke="#228B22" stroke-width="1"/>
    <ellipse cx="35" cy="-60" rx="22" ry="9" fill="url(#folhaGrad)" stroke="#228B22" stroke-width="1" transform="rotate(10 35 -60)"/>
    <path d="M35,-60 L13,-60" stroke="#228B22" stroke-width="1"/>
    
    <!-- Par de folhas médio -->
    <ellipse cx="-40" cy="-30" rx="25" ry="10" fill="url(#folhaGrad)" stroke="#228B22" stroke-width="1" transform="rotate(-8 -40 -30)"/>
    <path d="M-40,-30 L-15,-30" stroke="#228B22" stroke-width="1"/>
    <ellipse cx="40" cy="-30" rx="25" ry="10" fill="url(#folhaGrad)" stroke="#228B22" stroke-width="1" transform="rotate(8 40 -30)"/>
    <path d="M40,-30 L15,-30" stroke="#228B22" stroke-width="1"/>
    
    <!-- Par de folhas médio inferior -->
    <ellipse cx="-38" cy="0" rx="23" ry="9" fill="url(#folhaGrad)" stroke="#228B22" stroke-width="1" transform="rotate(-5 -38 0)"/>
    <path d="M-38,0 L-15,0" stroke="#228B22" stroke-width="1"/>
    <ellipse cx="38" cy="0" rx="23" ry="9" fill="url(#folhaGrad)" stroke="#228B22" stroke-width="1" transform="rotate(5 38 0)"/>
    <path d="M38,0 L15,0" stroke="#228B22" stroke-width="1"/>
    
    <!-- Par de folhas inferior -->
    <ellipse cx="-32" cy="30" rx="20" ry="8" fill="url(#folhaGrad)" stroke="#228B22" stroke-width="1" transform="rotate(-3 -32 30)"/>
    <path d="M-32,30 L-12,30" stroke="#228B22" stroke-width="1"/>
    <ellipse cx="32" cy="30" rx="20" ry="8" fill="url(#folhaGrad)" stroke="#228B22" stroke-width="1" transform="rotate(3 32 30)"/>
    <path d="M32,30 L12,30" stroke="#228B22" stroke-width="1"/>
    
    <!-- Cachos de café (cerejas) -->
    <!-- Cacho esquerdo superior -->
    <g transform="translate(-50,-70)">
      <!-- Cerejas maduras (vermelhas) -->
      <ellipse cx="0" cy="0" rx="4" ry="6" fill="url(#cerejaGrad)" stroke="#8B0000" stroke-width="0.5"/>
      <ellipse cx="-3" cy="8" rx="4" ry="6" fill="url(#cerejaGrad)" stroke="#8B0000" stroke-width="0.5"/>
      <ellipse cx="3" cy="8" rx="4" ry="6" fill="url(#cerejaGrad)" stroke="#8B0000" stroke-width="0.5"/>
      <ellipse cx="-6" cy="16" rx="4" ry="6" fill="url(#cerejaGrad)" stroke="#8B0000" stroke-width="0.5"/>
      <ellipse cx="0" cy="16" rx="4" ry="6" fill="url(#cerejaGrad)" stroke="#8B0000" stroke-width="0.5"/>
      <ellipse cx="6" cy="16" rx="4" ry="6" fill="url(#cerejaGrad)" stroke="#8B0000" stroke-width="0.5"/>
      <!-- Cerejas verdes (imaturas) -->
      <ellipse cx="-3" cy="24" rx="3.5" ry="5" fill="url(#cerejaVerde)" stroke="#228B22" stroke-width="0.5"/>
      <ellipse cx="3" cy="24" rx="3.5" ry="5" fill="url(#cerejaVerde)" stroke="#228B22" stroke-width="0.5"/>
      <!-- Grãos de café visíveis -->
      <ellipse cx="0" cy="2" rx="2" ry="3" fill="url(#graoCafe)" stroke="#4A2C17" stroke-width="0.3" opacity="0.7"/>
      <ellipse cx="-3" cy="10" rx="2" ry="3" fill="url(#graoCafe)" stroke="#4A2C17" stroke-width="0.3" opacity="0.7"/>
      <ellipse cx="3" cy="10" rx="2" ry="3" fill="url(#graoCafe)" stroke="#4A2C17" stroke-width="0.3" opacity="0.7"/>
    </g>
    
    <!-- Cacho direito superior -->
    <g transform="translate(50,-70)">
      <ellipse cx="0" cy="0" rx="4" ry="6" fill="url(#cerejaGrad)" stroke="#8B0000" stroke-width="0.5"/>
      <ellipse cx="-3" cy="8" rx="4" ry="6" fill="url(#cerejaGrad)" stroke="#8B0000" stroke-width="0.5"/>
      <ellipse cx="3" cy="8" rx="4" ry="6" fill="url(#cerejaGrad)" stroke="#8B0000" stroke-width="0.5"/>
      <ellipse cx="-6" cy="16" rx="4" ry="6" fill="url(#cerejaGrad)" stroke="#8B0000" stroke-width="0.5"/>
      <ellipse cx="0" cy="16" rx="4" ry="6" fill="url(#cerejaGrad)" stroke="#8B0000" stroke-width="0.5"/>
      <ellipse cx="6" cy="16" rx="4" ry="6" fill="url(#cerejaGrad)" stroke="#8B0000" stroke-width="0.5"/>
      <ellipse cx="-3" cy="24" rx="3.5" ry="5" fill="url(#cerejaVerde)" stroke="#228B22" stroke-width="0.5"/>
      <ellipse cx="3" cy="24" rx="3.5" ry="5" fill="url(#cerejaVerde)" stroke="#228B22" stroke-width="0.5"/>
      <ellipse cx="0" cy="2" rx="2" ry="3" fill="url(#graoCafe)" stroke="#4A2C17" stroke-width="0.3" opacity="0.7"/>
      <ellipse cx="-3" cy="10" rx="2" ry="3" fill="url(#graoCafe)" stroke="#4A2C17" stroke-width="0.3" opacity="0.7"/>
      <ellipse cx="3" cy="10" rx="2" ry="3" fill="url(#graoCafe)" stroke="#4A2C17" stroke-width="0.3" opacity="0.7"/>
    </g>
    
    <!-- Cacho esquerdo médio -->
    <g transform="translate(-55,-10)">
      <ellipse cx="0" cy="0" rx="4.5" ry="7" fill="url(#cerejaGrad)" stroke="#8B0000" stroke-width="0.5"/>
      <ellipse cx="-4" cy="9" rx="4.5" ry="7" fill="url(#cerejaGrad)" stroke="#8B0000" stroke-width="0.5"/>
      <ellipse cx="4" cy="9" rx="4.5" ry="7" fill="url(#cerejaGrad)" stroke="#8B0000" stroke-width="0.5"/>
      <ellipse cx="-7" cy="18" rx="4.5" ry="7" fill="url(#cerejaGrad)" stroke="#8B0000" stroke-width="0.5"/>
      <ellipse cx="0" cy="18" rx="4.5" ry="7" fill="url(#cerejaGrad)" stroke="#8B0000" stroke-width="0.5"/>
      <ellipse cx="7" cy="18" rx="4.5" ry="7" fill="url(#cerejaGrad)" stroke="#8B0000" stroke-width="0.5"/>
      <ellipse cx="-4" cy="27" rx="4" ry="6" fill="url(#cerejaVerde)" stroke="#228B22" stroke-width="0.5"/>
      <ellipse cx="4" cy="27" rx="4" ry="6" fill="url(#cerejaVerde)" stroke="#228B22" stroke-width="0.5"/>
      <ellipse cx="0" cy="35" rx="3.5" ry="5" fill="url(#cerejaVerde)" stroke="#228B22" stroke-width="0.5"/>
    </g>
    
    <!-- Cacho direito médio -->
    <g transform="translate(55,-10)">
      <ellipse cx="0" cy="0" rx="4.5" ry="7" fill="url(#cerejaGrad)" stroke="#8B0000" stroke-width="0.5"/>
      <ellipse cx="-4" cy="9" rx="4.5" ry="7" fill="url(#cerejaGrad)" stroke="#8B0000" stroke-width="0.5"/>
      <ellipse cx="4" cy="9" rx="4.5" ry="7" fill="url(#cerejaGrad)" stroke="#8B0000" stroke-width="0.5"/>
      <ellipse cx="-7" cy="18" rx="4.5" ry="7" fill="url(#cerejaGrad)" stroke="#8B0000" stroke-width="0.5"/>
      <ellipse cx="0" cy="18" rx="4.5" ry="7" fill="url(#cerejaGrad)" stroke="#8B0000" stroke-width="0.5"/>
      <ellipse cx="7" cy="18" rx="4.5" ry="7" fill="url(#cerejaGrad)" stroke="#8B0000" stroke-width="0.5"/>
      <ellipse cx="-4" cy="27" rx="4" ry="6" fill="url(#cerejaVerde)" stroke="#228B22" stroke-width="0.5"/>
      <ellipse cx="4" cy="27" rx="4" ry="6" fill="url(#cerejaVerde)" stroke="#228B22" stroke-width="0.5"/>
      <ellipse cx="0" cy="35" rx="3.5" ry="5" fill="url(#cerejaVerde)" stroke="#228B22" stroke-width="0.5"/>
    </g>
    
    <!-- Cacho inferior esquerdo -->
    <g transform="translate(-45,50)">
      <ellipse cx="0" cy="0" rx="4" ry="6" fill="url(#cerejaGrad)" stroke="#8B0000" stroke-width="0.5"/>
      <ellipse cx="-3" cy="8" rx="4" ry="6" fill="url(#cerejaGrad)" stroke="#8B0000" stroke-width="0.5"/>
      <ellipse cx="3" cy="8" rx="4" ry="6" fill="url(#cerejaGrad)" stroke="#8B0000" stroke-width="0.5"/>
      <ellipse cx="-6" cy="16" rx="4" ry="6" fill="url(#cerejaVerde)" stroke="#228B22" stroke-width="0.5"/>
      <ellipse cx="0" cy="16" rx="4" ry="6" fill="url(#cerejaVerde)" stroke="#228B22" stroke-width="0.5"/>
      <ellipse cx="6" cy="16" rx="4" ry="6" fill="url(#cerejaVerde)" stroke="#228B22" stroke-width="0.5"/>
    </g>
    
    <!-- Cacho inferior direito -->
    <g transform="translate(45,50)">
      <ellipse cx="0" cy="0" rx="4" ry="6" fill="url(#cerejaGrad)" stroke="#8B0000" stroke-width="0.5"/>
      <ellipse cx="-3" cy="8" rx="4" ry="6" fill="url(#cerejaGrad)" stroke="#8B0000" stroke-width="0.5"/>
      <ellipse cx="3" cy="8" rx="4" ry="6" fill="url(#cerejaGrad)" stroke="#8B0000" stroke-width="0.5"/>
      <ellipse cx="-6" cy="16" rx="4" ry="6" fill="url(#cerejaVerde)" stroke="#228B22" stroke-width="0.5"/>
      <ellipse cx="0" cy="16" rx="4" ry="6" fill="url(#cerejaVerde)" stroke="#228B22" stroke-width="0.5"/>
      <ellipse cx="6" cy="16" rx="4" ry="6" fill="url(#cerejaVerde)" stroke="#228B22" stroke-width="0.5"/>
    </g>
    
    <!-- Flores do cafeeiro (pequenas e brancas) -->
    <g transform="translate(-25,-100)">
      <circle cx="0" cy="0" r="2" fill="#FFFFFF" stroke="#F0F0F0" stroke-width="0.5"/>
      <circle cx="-1" cy="-1" r="0.5" fill="#FFFF99" stroke="#FFD700" stroke-width="0.2"/>
      <path d="M-1.5,-1.5 L1.5,1.5 M-1.5,1.5 L1.5,-1.5" stroke="#F0F0F0" stroke-width="0.3"/>
    </g>
    
    <g transform="translate(25,-100)">
      <circle cx="0" cy="0" r="2" fill="#FFFFFF" stroke="#F0F0F0" stroke-width="0.5"/>
      <circle cx="-1" cy="-1" r="0.5" fill="#FFFF99" stroke="#FFD700" stroke-width="0.2"/>
      <path d="M-1.5,-1.5 L1.5,1.5 M-1.5,1.5 L1.5,-1.5" stroke="#F0F0F0" stroke-width="0.3"/>
    </g>
    
    <!-- Grãos de café secos (processados) -->
    <g transform="translate(-10,90)">
      <ellipse cx="0" cy="0" rx="3" ry="5" fill="url(#graoCafe)" stroke="#4A2C17" stroke-width="0.5"/>
      <path d="M0,-3 L0,3" stroke="#8B4513" stroke-width="0.5"/>
      <ellipse cx="8" cy="2" rx="3" ry="5" fill="url(#graoCafe)" stroke="#4A2C17" stroke-width="0.5" transform="rotate(15 8 2)"/>
      <path d="M8,-1 L8,5" stroke="#8B4513" stroke-width="0.5"/>
      <ellipse cx="-8" cy="2" rx="3" ry="5" fill="url(#graoCafe)" stroke="#4A2C17" stroke-width="0.5" transform="rotate(-15 -8 2)"/>
      <path d="M-8,-1 L-8,5" stroke="#8B4513" stroke-width="0.5"/>
    </g>
  </g>
  
  <!-- Título -->
  <text x="150" y="370" text-anchor="middle" font-family="Arial, sans-serif" font-size="24" font-weight="bold" fill="#2c5530">CAFÉ</text>
</svg>