<svg xmlns="http://www.w3.org/2000/svg" viewBox="0 0 300 400">
  <defs>
    <linearGradient id="cauleTrigo" x1="0%" y1="0%" x2="100%" y2="100%">
      <stop offset="0%" style="stop-color:#DAA520;stop-opacity:1" />
      <stop offset="100%" style="stop-color:#B8860B;stop-opacity:1" />
    </linearGradient>
    <linearGradient id="folhaTrigo" x1="0%" y1="0%" x2="100%" y2="100%">
      <stop offset="0%" style="stop-color:#9ACD32;stop-opacity:1" />
      <stop offset="50%" style="stop-color:#8FBC8F;stop-opacity:1" />
      <stop offset="100%" style="stop-color:#6B8E23;stop-opacity:1" />
    </linearGradient>
    <radialGradient id="graoTrigo" cx="50%" cy="30%" r="70%">
      <stop offset="0%" style="stop-color:#F4E4BC;stop-opacity:1" />
      <stop offset="50%" style="stop-color:#DEB887;stop-opacity:1" />
      <stop offset="100%" style="stop-color:#D2B48C;stop-opacity:1" />
    </radialGradient>
    <linearGradient id="espigas" x1="0%" y1="0%" x2="100%" y2="100%">
      <stop offset="0%" style="stop-color:#F5DEB3;stop-opacity:1" />
      <stop offset="50%" style="stop-color:#DEB887;stop-opacity:1" />
      <stop offset="100%" style="stop-color:#D2B48C;stop-opacity:1" />
    </linearGradient>
    <linearGradient id="barbas" x1="0%" y1="0%" x2="100%" y2="100%">
      <stop offset="0%" style="stop-color:#F5F5DC;stop-opacity:1" />
      <stop offset="100%" style="stop-color:#DDBF94;stop-opacity:1" />
    </linearGradient>
  </defs>
  
  <!-- Fundo -->
  <rect width="300" height="400" fill="#f8f9fa"/>
  
  <g transform="translate(150,200)">
    <!-- Caules principais -->
    <rect x="-3" y="-120" width="6" height="240" fill="url(#cauleTrigo)" stroke="#B8860B" stroke-width="1" rx="3"/>
    <rect x="-15" y="-115" width="5" height="235" fill="url(#cauleTrigo)" stroke="#B8860B" stroke-width="1" rx="2.5"/>
    <rect x="15" y="-115" width="5" height="235" fill="url(#cauleTrigo)" stroke="#B8860B" stroke-width="1" rx="2.5"/>
    <rect x="-25" y="-110" width="4" height="230" fill="url(#cauleTrigo)" stroke="#B8860B" stroke-width="1" rx="2"/>
    <rect x="25" y="-110" width="4" height="230" fill="url(#cauleTrigo)" stroke="#B8860B" stroke-width="1" rx="2"/>
    
    <!-- Folhas do trigo (longas e estreitas) -->
    <!-- Folhas do caule central -->
    <ellipse cx="-8" cy="-80" rx="3" ry="25" fill="url(#folhaTrigo)" stroke="#6B8E23" stroke-width="0.5" transform="rotate(-20 -8 -80)"/>
    <ellipse cx="8" cy="-80" rx="3" ry="25" fill="url(#folhaTrigo)" stroke="#6B8E23" stroke-width="0.5" transform="rotate(20 8 -80)"/>
    <ellipse cx="-10" cy="-40" rx="3" ry="30" fill="url(#folhaTrigo)" stroke="#6B8E23" stroke-width="0.5" transform="rotate(-25 -10 -40)"/>
    <ellipse cx="10" cy="-40" rx="3" ry="30" fill="url(#folhaTrigo)" stroke="#6B8E23" stroke-width="0.5" transform="rotate(25 10 -40)"/>
    <ellipse cx="-12" cy="0" rx="3" ry="35" fill="url(#folhaTrigo)" stroke="#6B8E23" stroke-width="0.5" transform="rotate(-30 -12 0)"/>
    <ellipse cx="12" cy="0" rx="3" ry="35" fill="url(#folhaTrigo)" stroke="#6B8E23" stroke-width="0.5" transform="rotate(30 12 0)"/>
    <ellipse cx="-14" cy="40" rx="3" ry="40" fill="url(#folhaTrigo)" stroke="#6B8E23" stroke-width="0.5" transform="rotate(-35 -14 40)"/>
    <ellipse cx="14" cy="40" rx="3" ry="40" fill="url(#folhaTrigo)" stroke="#6B8E23" stroke-width="0.5" transform="rotate(35 14 40)"/>
    
    <!-- Folhas dos caules laterais -->
    <ellipse cx="-22" cy="-70" rx="2.5" ry="20" fill="url(#folhaTrigo)" stroke="#6B8E23" stroke-width="0.5" transform="rotate(-15 -22 -70)"/>
    <ellipse cx="22" cy="-70" rx="2.5" ry="20" fill="url(#folhaTrigo)" stroke="#6B8E23" stroke-width="0.5" transform="rotate(15 22 -70)"/>
    <ellipse cx="-30" cy="-30" rx="2.5" ry="25" fill="url(#folhaTrigo)" stroke="#6B8E23" stroke-width="0.5" transform="rotate(-20 -30 -30)"/>
    <ellipse cx="30" cy="-30" rx="2.5" ry="25" fill="url(#folhaTrigo)" stroke="#6B8E23" stroke-width="0.5" transform="rotate(20 30 -30)"/>
    <ellipse cx="-32" cy="10" rx="2.5" ry="30" fill="url(#folhaTrigo)" stroke="#6B8E23" stroke-width="0.5" transform="rotate(-25 -32 10)"/>
    <ellipse cx="32" cy="10" rx="2.5" ry="30" fill="url(#folhaTrigo)" stroke="#6B8E23" stroke-width="0.5" transform="rotate(25 32 10)"/>
    
    <!-- Espigas de trigo -->
    <!-- Espiga central (principal) -->
    <g transform="translate(0,-120)">
      <!-- Base da espiga -->
      <ellipse cx="0" cy="0" rx="8" ry="45" fill="url(#espigas)" stroke="#D2B48C" stroke-width="1"/>
      
      <!-- Grãos da espiga (dispostos em fileiras) -->
      <!-- Fileira esquerda -->
      <ellipse cx="-4" cy="-35" rx="3" ry="4" fill="url(#graoTrigo)" stroke="#D2B48C" stroke-width="0.3"/>
      <ellipse cx="-4" cy="-28" rx="3" ry="4" fill="url(#graoTrigo)" stroke="#D2B48C" stroke-width="0.3"/>
      <ellipse cx="-4" cy="-21" rx="3" ry="4" fill="url(#graoTrigo)" stroke="#D2B48C" stroke-width="0.3"/>
      <ellipse cx="-4" cy="-14" rx="3" ry="4" fill="url(#graoTrigo)" stroke="#D2B48C" stroke-width="0.3"/>
      <ellipse cx="-4" cy="-7" rx="3" ry="4" fill="url(#graoTrigo)" stroke="#D2B48C" stroke-width="0.3"/>
      <ellipse cx="-4" cy="0" rx="3" ry="4" fill="url(#graoTrigo)" stroke="#D2B48C" stroke-width="0.3"/>
      <ellipse cx="-4" cy="7" rx="3" ry="4" fill="url(#graoTrigo)" stroke="#D2B48C" stroke-width="0.3"/>
      <ellipse cx="-4" cy="14" rx="3" ry="4" fill="url(#graoTrigo)" stroke="#D2B48C" stroke-width="0.3"/>
      <ellipse cx="-4" cy="21" rx="3" ry="4" fill="url(#graoTrigo)" stroke="#D2B48C" stroke-width="0.3"/>
      <ellipse cx="-4" cy="28" rx="3" ry="4" fill="url(#graoTrigo)" stroke="#D2B48C" stroke-width="0.3"/>
      <ellipse cx="-4" cy="35" rx="3" ry="4" fill="url(#graoTrigo)" stroke="#D2B48C" stroke-width="0.3"/>
      
      <!-- Fileira direita -->
      <ellipse cx="4" cy="-35" rx="3" ry="4" fill="url(#graoTrigo)" stroke="#D2B48C" stroke-width="0.3"/>
      <ellipse cx="4" cy="-28" rx="3" ry="4" fill="url(#graoTrigo)" stroke="#D2B48C" stroke-width="0.3"/>
      <ellipse cx="4" cy="-21" rx="3" ry="4" fill="url(#graoTrigo)" stroke="#D2B48C" stroke-width="0.3"/>
      <ellipse cx="4" cy="-14" rx="3" ry="4" fill="url(#graoTrigo)" stroke="#D2B48C" stroke-width="0.3"/>
      <ellipse cx="4" cy="-7" rx="3" ry="4" fill="url(#graoTrigo)" stroke="#D2B48C" stroke-width="0.3"/>
      <ellipse cx="4" cy="0" rx="3" ry="4" fill="url(#graoTrigo)" stroke="#D2B48C" stroke-width="0.3"/>
      <ellipse cx="4" cy="7" rx="3" ry="4" fill="url(#graoTrigo)" stroke="#D2B48C" stroke-width="0.3"/>
      <ellipse cx="4" cy="14" rx="3" ry="4" fill="url(#graoTrigo)" stroke="#D2B48C" stroke-width="0.3"/>
      <ellipse cx="4" cy="21" rx="3" ry="4" fill="url(#graoTrigo)" stroke="#D2B48C" stroke-width="0.3"/>
      <ellipse cx="4" cy="28" rx="3" ry="4" fill="url(#graoTrigo)" stroke="#D2B48C" stroke-width="0.3"/>
      <ellipse cx="4" cy="35" rx="3" ry="4" fill="url(#graoTrigo)" stroke="#D2B48C" stroke-width="0.3"/>
      
      <!-- Fileira central -->
      <ellipse cx="0" cy="-32" rx="2.5" ry="3.5" fill="url(#graoTrigo)" stroke="#D2B48C" stroke-width="0.3"/>
      <ellipse cx="0" cy="-25" rx="2.5" ry="3.5" fill="url(#graoTrigo)" stroke="#D2B48C" stroke-width="0.3"/>
      <ellipse cx="0" cy="-18" rx="2.5" ry="3.5" fill="url(#graoTrigo)" stroke="#D2B48C" stroke-width="0.3"/>
      <ellipse cx="0" cy="-11" rx="2.5" ry="3.5" fill="url(#graoTrigo)" stroke="#D2B48C" stroke-width="0.3"/>
      <ellipse cx="0" cy="-4" rx="2.5" ry="3.5" fill="url(#graoTrigo)" stroke="#D2B48C" stroke-width="0.3"/>
      <ellipse cx="0" cy="3" rx="2.5" ry="3.5" fill="url(#graoTrigo)" stroke="#D2B48C" stroke-width="0.3"/>
      <ellipse cx="0" cy="10" rx="2.5" ry="3.5" fill="url(#graoTrigo)" stroke="#D2B48C" stroke-width="0.3"/>
      <ellipse cx="0" cy="17" rx="2.5" ry="3.5" fill="url(#graoTrigo)" stroke="#D2B48C" stroke-width="0.3"/>
      <ellipse cx="0" cy="24" rx="2.5" ry="3.5" fill="url(#graoTrigo)" stroke="#D2B48C" stroke-width="0.3"/>
      <ellipse cx="0" cy="31" rx="2.5" ry="3.5" fill="url(#graoTrigo)" stroke="#D2B48C" stroke-width="0.3"/>
      <ellipse cx="0" cy="38" rx="2.5" ry="3.5" fill="url(#graoTrigo)" stroke="#D2B48C" stroke-width="0.3"/>
      
      <!-- Barbas do trigo (aristas) -->
      <g transform="translate(0,0)">
        <!-- Barbas esquerdas -->
        <path d="M-7,-35 L-15,-50" stroke="url(#barbas)" stroke-width="0.5" fill="none"/>
        <path d="M-7,-28 L-16,-45" stroke="url(#barbas)" stroke-width="0.5" fill="none"/>
        <path d="M-7,-21 L-17,-40" stroke="url(#barbas)" stroke-width="0.5" fill="none"/>
        <path d="M-7,-14 L-18,-35" stroke="url(#barbas)" stroke-width="0.5" fill="none"/>
        <path d="M-7,-7 L-19,-30" stroke="url(#barbas)" stroke-width="0.5" fill="none"/>
        <path d="M-7,0 L-20,-25" stroke="url(#barbas)" stroke-width="0.5" fill="none"/>
        <path d="M-7,7 L-19,-20" stroke="url(#barbas)" stroke-width="0.5" fill="none"/>
        <path d="M-7,14 L-18,-15" stroke="url(#barbas)" stroke-width="0.5" fill="none"/>
        <path d="M-7,21 L-17,-10" stroke="url(#barbas)" stroke-width="0.5" fill="none"/>
        <path d="M-7,28 L-16,-5" stroke="url(#barbas)" stroke-width="0.5" fill="none"/>
        <path d="M-7,35 L-15,0" stroke="url(#barbas)" stroke-width="0.5" fill="none"/>
        
        <!-- Barbas direitas -->
        <path d="M7,-35 L15,-50" stroke="url(#barbas)" stroke-width="0.5" fill="none"/>
        <path d="M7,-28 L16,-45" stroke="url(#barbas)" stroke-width="0.5" fill="none"/>
        <path d="M7,-21 L17,-40" stroke="url(#barbas)" stroke-width="0.5" fill="none"/>
        <path d="M7,-14 L18,-35" stroke="url(#barbas)" stroke-width="0.5" fill="none"/>
        <path d="M7,-7 L19,-30" stroke="url(#barbas)" stroke-width="0.5" fill="none"/>
        <path d="M7,0 L20,-25" stroke="url(#barbas)" stroke-width="0.5" fill="none"/>
        <path d="M7,7 L19,-20" stroke="url(#barbas)" stroke-width="0.5" fill="none"/>
        <path d="M7,14 L18,-15" stroke="url(#barbas)" stroke-width="0.5" fill="none"/>
        <path d="M7,21 L17,-10" stroke="url(#barbas)" stroke-width="0.5" fill="none"/>
        <path d="M7,28 L16,-5" stroke="url(#barbas)" stroke-width="0.5" fill="none"/>
        <path d="M7,35 L15,0" stroke="url(#barbas)" stroke-width="0.5" fill="none"/>
        
        <!-- Barbas centrais -->
        <path d="M0,-32 L-5,-48" stroke="url(#barbas)" stroke-width="0.4" fill="none"/>
        <path d="M0,-25 L5,-43" stroke="url(#barbas)" stroke-width="0.4" fill="none"/>
        <path d="M0,-18 L-3,-38" stroke="url(#barbas)" stroke-width="0.4" fill="none"/>
        <path d="M0,-11 L3,-33" stroke="url(#barbas)" stroke-width="0.4" fill="none"/>
        <path d="M0,-4 L-2,-28" stroke="url(#barbas)" stroke-width="0.4" fill="none"/>
        <path d="M0,3 L2,-23" stroke="url(#barbas)" stroke-width="0.4" fill="none"/>
        <path d="M0,10 L-1,-18" stroke="url(#barbas)" stroke-width="0.4" fill="none"/>
        <path d="M0,17 L1,-13" stroke="url(#barbas)" stroke-width="0.4" fill="none"/>
        <path d="M0,24 L-1,-8" stroke="url(#barbas)" stroke-width="0.4" fill="none"/>
        <path d="M0,31 L1,-3" stroke="url(#barbas)" stroke-width="0.4" fill="none"/>
        <path d="M0,38 L0,2" stroke="url(#barbas)" stroke-width="0.4" fill="none"/>
      </g>
    </g>
    
    <!-- Espiga esquerda -->
    <g transform="translate(-15,-115)">
      <ellipse cx="0" cy="0" rx="6" ry="35" fill="url(#espigas)" stroke="#D2B48C" stroke-width="1"/>
      <!-- Grãos menores -->
      <ellipse cx="-3" cy="-25" rx="2" ry="3" fill="url(#graoTrigo)" stroke="#D2B48C" stroke-width="0.3"/>
      <ellipse cx="3" cy="-25" rx="2" ry="3" fill="url(#graoTrigo)" stroke="#D2B48C" stroke-width="0.3"/>
      <ellipse cx="-3" cy="-18" rx="2" ry="3" fill="url(#graoTrigo)" stroke="#D2B48C" stroke-width="0.3"/>
      <ellipse cx="3" cy="-18" rx="2" ry="3" fill="url(#graoTrigo)" stroke="#D2B48C" stroke-width="0.3"/>
      <ellipse cx="-3" cy="-11" rx="2" ry="3" fill="url(#graoTrigo)" stroke="#D2B48C" stroke-width="0.3"/>
      <ellipse cx="3" cy="-11" rx="2" ry="3" fill="url(#graoTrigo)" stroke="#D2B48C" stroke-width="0.3"/>
      <ellipse cx="-3" cy="-4" rx="2" ry="3" fill="url(#graoTrigo)" stroke="#D2B48C" stroke-width="0.3"/>
      <ellipse cx="3" cy="-4" rx="2" ry="3" fill="url(#graoTrigo)" stroke="#D2B48C" stroke-width="0.3"/>
      <ellipse cx="-3" cy="3" rx="2" ry="3" fill="url(#graoTrigo)" stroke="#D2B48C" stroke-width="0.3"/>
      <ellipse cx="3" cy="3" rx="2" ry="3" fill="url(#graoTrigo)" stroke="#D2B48C" stroke-width="0.3"/>
      <ellipse cx="-3" cy="10" rx="2" ry="3" fill="url(#graoTrigo)" stroke="#D2B48C" stroke-width="0.3"/>
      <ellipse cx="3" cy="10" rx="2" ry="3" fill="url(#graoTrigo)" stroke="#D2B48C" stroke-width="0.3"/>
      <ellipse cx="-3" cy="17" rx="2" ry="3" fill="url(#graoTrigo)" stroke="#D2B48C" stroke-width="0.3"/>
      <ellipse cx="3" cy="17" rx="2" ry="3" fill="url(#graoTrigo)" stroke="#D2B48C" stroke-width="0.3"/>
      <ellipse cx="-3" cy="24" rx="2" ry="3" fill="url(#graoTrigo)" stroke="#D2B48C" stroke-width="0.3"/>
      <ellipse cx="3" cy="24" rx="2" ry="3" fill="url(#graoTrigo)" stroke="#D2B48C" stroke-width="0.3"/>
      <!-- Barbas menores -->
      <path d="M-5,-25 L-10,-35" stroke="url(#barbas)" stroke-width="0.4" fill="none"/>
      <path d="M5,-25 L10,-35" stroke="url(#barbas)" stroke-width="0.4" fill="none"/>
      <path d="M-5,-18 L-11,-30" stroke="url(#barbas)" stroke-width="0.4" fill="none"/>
      <path d="M5,-18 L11,-30" stroke="url(#barbas)" stroke-width="0.4" fill="none"/>
      <path d="M-5,-11 L-12,-25" stroke="url(#barbas)" stroke-width="0.4" fill="none"/>
      <path d="M5,-11 L12,-25" stroke="url(#barbas)" stroke-width="0.4" fill="none"/>
    </g>
    
    <!-- Espiga direita -->
    <g transform="translate(15,-115)">
      <ellipse cx="0" cy="0" rx="6" ry="35" fill="url(#espigas)" stroke="#D2B48C" stroke-width="1"/>
      <!-- Grãos menores -->
      <ellipse cx="-3" cy="-25" rx="2" ry="3" fill="url(#graoTrigo)" stroke="#D2B48C" stroke-width="0.3"/>
      <ellipse cx="3" cy="-25" rx="2" ry="3" fill="url(#graoTrigo)" stroke="#D2B48C" stroke-width="0.3"/>
      <ellipse cx="-3" cy="-18" rx="2" ry="3" fill="url(#graoTrigo)" stroke="#D2B48C" stroke-width="0.3"/>
      <ellipse cx="3" cy="-18" rx="2" ry="3" fill="url(#graoTrigo)" stroke="#D2B48C" stroke-width="0.3"/>
      <ellipse cx="-3" cy="-11" rx="2" ry="3" fill="url(#graoTrigo)" stroke="#D2B48C" stroke-width="0.3"/>
      <ellipse cx="3" cy="-11" rx="2" ry="3" fill="url(#graoTrigo)" stroke="#D2B48C" stroke-width="0.3"/>
      <ellipse cx="-3" cy="-4" rx="2" ry="3" fill="url(#graoTrigo)" stroke="#D2B48C" stroke-width="0.3"/>
      <ellipse cx="3" cy="-4" rx="2" ry="3" fill="url(#graoTrigo)" stroke="#D2B48C" stroke-width="0.3"/>
      <ellipse cx="-3" cy="3" rx="2" ry="3" fill="url(#graoTrigo)" stroke="#D2B48C" stroke-width="0.3"/>
      <ellipse cx="3" cy="3" rx="2" ry="3" fill="url(#graoTrigo)" stroke="#D2B48C" stroke-width="0.3"/>
      <ellipse cx="-3" cy="10" rx="2" ry="3" fill="url(#graoTrigo)" stroke="#D2B48C" stroke-width="0.3"/>
      <ellipse cx="3" cy="10" rx="2" ry="3" fill="url(#graoTrigo)" stroke="#D2B48C" stroke-width="0.3"/>
      <ellipse cx="-3" cy="17" rx="2" ry="3" fill="url(#graoTrigo)" stroke="#D2B48C" stroke-width="0.3"/>
      <ellipse cx="3" cy="17" rx="2" ry="3" fill="url(#graoTrigo)" stroke="#D2B48C" stroke-width="0.3"/>
      <ellipse cx="-3" cy="24" rx="2" ry="3" fill="url(#graoTrigo)" stroke="#D2B48C" stroke-width="0.3"/>
      <ellipse cx="3" cy="24" rx="2" ry="3" fill="url(#graoTrigo)" stroke="#D2B48C" stroke-width="0.3"/>
      <!-- Barbas menores -->
      <path d="M-5,-25 L-10,-35" stroke="url(#barbas)" stroke-width="0.4" fill="none"/>
      <path d="M5,-25 L10,-35" stroke="url(#barbas)" stroke-width="0.4" fill="none"/>
      <path d="M-5,-18 L-11,-30" stroke="url(#barbas)" stroke-width="0.4" fill="none"/>
      <path d="M5,-18 L11,-30" stroke="url(#barbas)" stroke-width="0.4" fill="none"/>
      <path d="M-5,-11 L-12,-25" stroke="url(#barbas)" stroke-width="0.4" fill="none"/>
      <path d="M5,-11 L12,-25" stroke="url(#barbas)" stroke-width="0.4" fill="none"/>
    </g>
    
    <!-- Espigas laterais menores -->
    <g transform="translate(-25,-110)">
      <ellipse cx="0" cy="0" rx="4" ry="25" fill="url(#espigas)" stroke="#D2B48C" stroke-width="1"/>
      <ellipse cx="-2" cy="-15" rx="1.5" ry="2" fill="url(#graoTrigo)" stroke="#D2B48C" stroke-width="0.3"/>
      <ellipse cx="2" cy="-15" rx="1.5" ry="2" fill="url(#graoTrigo)" stroke="#D2B48C" stroke-width="0.3"/>
      <ellipse cx="-2" cy="-10" rx="1.5" ry="2" fill="url(#graoTrigo)" stroke="#D2B48C" stroke-width="0.3"/>
      <ellipse cx="2" cy="-10" rx="1.5" ry="2" fill="url(#graoTrigo)" stroke="#D2B48C" stroke-width="0.3"/>
      <ellipse cx="-2" cy="-5" rx="1.5" ry="2" fill="url(#graoTrigo)" stroke="#D2B48C" stroke-width="0.3"/>
      <ellipse cx="2" cy="-5" rx="1.5" ry="2" fill="url(#graoTrigo)" stroke="#D2B48C" stroke-width="0.3"/>
      <ellipse cx="-2" cy="0" rx="1.5" ry="2" fill="url(#graoTrigo)" stroke="#D2B48C" stroke-width="0.3"/>
      <ellipse cx="2" cy="0" rx="1.5" ry="2" fill="url(#graoTrigo)" stroke="#D2B48C" stroke-width="0.3"/>
      <ellipse cx="-2" cy="5" rx="1.5" ry="2" fill="url(#graoTrigo)" stroke="#D2B48C" stroke-width="0.3"/>
      <ellipse cx="2" cy="5" rx="1.5" ry="2" fill="url(#graoTrigo)" stroke="#D2B48C" stroke-width="0.3"/>
      <ellipse cx="-2" cy="10" rx="1.5" ry="2" fill="url(#graoTrigo)" stroke="#D2B48C" stroke-width="0.3"/>
      <ellipse cx="2" cy="10" rx="1.5" ry="2" fill="url(#graoTrigo)" stroke="#D2B48C" stroke-width="0.3"/>
      <ellipse cx="-2" cy="15" rx="1.5" ry="2" fill="url(#graoTrigo)" stroke="#D2B48C" stroke-width="0.3"/>
      <ellipse cx="2" cy="15" rx="1.5" ry="2" fill="url(#graoTrigo)" stroke="#D2B48C" stroke-width="0.3"/>
    </g>
    
    <g transform="translate(25,-110)">
      <ellipse cx="0" cy="0" rx="4" ry="25" fill="url(#espigas)" stroke="#D2B48C" stroke-width="1"/>
      <ellipse cx="-2" cy="-15" rx="1.5" ry="2" fill="url(#graoTrigo)" stroke="#D2B48C" stroke-width="0.3"/>
      <ellipse cx="2" cy="-15" rx="1.5" ry="2" fill="url(#graoTrigo)" stroke="#D2B48C" stroke-width="0.3"/>
      <ellipse cx="-2" cy="-10" rx="1.5" ry="2" fill="url(#graoTrigo)" stroke="#D2B48C" stroke-width="0.3"/>
      <ellipse cx="2" cy="-10" rx="1.5" ry="2" fill="url(#graoTrigo)" stroke="#D2B48C" stroke-width="0.3"/>
      <ellipse cx="-2" cy="-5" rx="1.5" ry="2" fill="url(#graoTrigo)" stroke="#D2B48C" stroke-width="0.3"/>
      <ellipse cx="2" cy="-5" rx="1.5" ry="2" fill="url(#graoTrigo)" stroke="#D2B48C" stroke-width="0.3"/>
      <ellipse cx="-2" cy="0" rx="1.5" ry="2" fill="url(#graoTrigo)" stroke="#D2B48C" stroke-width="0.3"/>
      <ellipse cx="2" cy="0" rx="1.5" ry="2" fill="url(#graoTrigo)" stroke="#D2B48C" stroke-width="0.3"/>
      <ellipse cx="-2" cy="5" rx="1.5" ry="2" fill="url(#graoTrigo)" stroke="#D2B48C" stroke-width="0.3"/>
      <ellipse cx="2" cy="5" rx="1.5" ry="2" fill="url(#graoTrigo)" stroke="#D2B48C" stroke-width="0.3"/>
      <ellipse cx="-2" cy="10" rx="1.5" ry="2" fill="url(#graoTrigo)" stroke="#D2B48C" stroke-width="0.3"/>
      <ellipse cx="2" cy="10" rx="1.5" ry="2" fill="url(#graoTrigo)" stroke="#D2B48C" stroke-width="0.3"/>
      <ellipse cx="-2" cy="15" rx="1.5" ry="2" fill="url(#graoTrigo)" stroke="#D2B48C" stroke-width="0.3"/>
      <ellipse cx="2" cy="15" rx="1.5" ry="2" fill="url(#graoTrigo)" stroke="#D2B48C" stroke-width="0.3"/>
    </g>
    
    <!-- Grãos de trigo soltos (processados) -->
    <g transform="translate(0,90)">
      <ellipse cx="-8" cy="0" rx="2" ry="3" fill="url(#graoTrigo)" stroke="#D2B48C" stroke-width="0.5" transform="rotate(-10 -8 0)"/>
      <ellipse cx="0" cy="2" rx="2" ry="3" fill="url(#graoTrigo)" stroke="#D2B48C" stroke-width="0.5"/>
      <ellipse cx="8" cy="0" rx="2" ry="3" fill="url(#graoTrigo)" stroke="#D2B48C" stroke-width="0.5" transform="rotate(10 8 0)"/>
      <ellipse cx="-4" cy="8" rx="2" ry="3" fill="url(#graoTrigo)" stroke="#D2B48C" stroke-width="0.5" transform="rotate(-5 -4 8)"/>
      <ellipse cx="4" cy="8" rx="2" ry="3" fill="url(#graoTrigo)" stroke="#D2B48C" stroke-width="0.5" transform="rotate(5 4 8)"/>
      <ellipse cx="-12" cy="6" rx="2" ry="3" fill="url(#graoTrigo)" stroke="#D2B48C" stroke-width="0.5" transform="rotate(-15 -12 6)"/>
      <ellipse cx="12" cy="6" rx="2" ry="3" fill="url(#graoTrigo)" stroke="#D2B48C" stroke-width="0.5" transform="rotate(15 12 6)"/>
    </g>
  </g>
  
  <!-- Título -->
  <text x="150" y="370" text-anchor="middle" font-family="Arial, sans-serif" font-size="24" font-weight="bold" fill="#2c5530">TRIGO</text>
</svg>